<svg width="100%" viewBox="0 0 522 522" xmlns="http://www.w3.org/2000/svg" style="">
  <title style="fill:rgb(0, 0, 0);stroke:none;color:rgb(0, 0, 0);stroke-width:1px;stroke-linecap:butt;stroke-linejoin:miter;opacity:1;font-family:&quot;Anthropic Sans&quot;, -apple-system, BlinkMacSystemFont, &quot;Segoe UI&quot;, sans-serif;font-size:16px;font-weight:400;text-anchor:start;dominant-baseline:auto">Rent Car App Icon</title>
  <defs>
    <linearGradient id="rentIconGradient" x1="0" y1="0" x2="512" y2="512" gradientUnits="userSpaceOnUse">
      <stop stop-color="#08B5F4"/>
      <stop offset="1" stop-color="#38D0FF"/>
    </linearGradient>
  </defs>
  <rect width="512" height="512" rx="115" fill="url(#rentIconGradient)" style="stroke:none;color:rgb(0, 0, 0);stroke-width:1px;stroke-linecap:butt;stroke-linejoin:miter;opacity:1;font-family:&quot;Anthropic Sans&quot;, -apple-system, BlinkMacSystemFont, &quot;Segoe UI&quot;, sans-serif;font-size:16px;font-weight:400;text-anchor:start;dominant-baseline:auto"/>
  <g transform="translate(256,190) scale(17.6) translate(-10,-10)" style="fill:rgb(0, 0, 0);stroke:none;color:rgb(0, 0, 0);stroke-width:1px;stroke-linecap:butt;stroke-linejoin:miter;opacity:1;font-family:&quot;Anthropic Sans&quot;, -apple-system, BlinkMacSystemFont, &quot;Segoe UI&quot;, sans-serif;font-size:16px;font-weight:400;text-anchor:start;dominant-baseline:auto">
    <path transform="translate(-84,-5319)" d="M89,5335 L89,5335 C88.448,5335 88,5334.552 88,5334 C88,5333.448 88.448,5333 89,5333 C89.552,5333 90,5333.448 90,5334 C90,5334.552 89.552,5335 89,5335 M99,5333 L99,5333 C99.552,5333 100,5333.448 100,5334 C100,5334.552 99.552,5335 99,5335 C98.448,5335 98,5334.552 98,5334 C98,5333.448 98.448,5333 99,5333 M90.602,5321 L97.398,5321 C97.896,5321 98.318,5321.366 98.388,5321.859 L99.694,5331 L88.306,5331 L89.612,5321.859 C89.682,5321.366 90.104,5321 90.602,5321 M104,5328 L104,5328 C104,5327.448 103.552,5327 103,5327 L101.143,5327 L100.245,5320.717 C100.105,5319.732 99.261,5319 98.265,5319 L89.735,5319 C88.739,5319 87.895,5319.732 87.755,5320.717 L86.857,5327 L85,5327 C84.448,5327 84,5327.448 84,5328 C84,5328.552 84.448,5329 85,5329 L86.571,5329 L86.286,5331 L86,5331 C84.895,5331 84,5331.895 84,5333 L84,5335 C84,5336.105 84.895,5337 86,5337 L86,5338 C86,5338.552 86.448,5339 87,5339 L89,5339 C89.552,5339 90,5338.552 90,5338 L90,5337 L98,5337 L98,5338 C98,5338.552 98.448,5339 99,5339 L101,5339 C101.552,5339 102,5338.552 102,5338 L102,5337 C103.105,5337 104,5336.105 104,5335 L104,5333 C104,5331.895 103.105,5331 102,5331 L101.714,5331 L101.429,5329 L103,5329 C103.552,5329 104,5328.552 104,5328" fill="#FFFFFF" fill-rule="evenodd" style="fill:rgb(255, 255, 255);stroke:none;color:rgb(0, 0, 0);stroke-width:1px;stroke-linecap:butt;stroke-linejoin:miter;opacity:1;font-family:&quot;Anthropic Sans&quot;, -apple-system, BlinkMacSystemFont, &quot;Segoe UI&quot;, sans-serif;font-size:16px;font-weight:400;text-anchor:start;dominant-baseline:auto"/>
  </g>
  <text x="256" y="470" text-anchor="middle" font-family="-apple-system, BlinkMacSystemFont, 'Helvetica Neue', sans-serif" font-size="64" font-weight="700" fill="#FFFFFF" letter-spacing="-1" style="fill:rgb(255, 255, 255);stroke:none;color:rgb(0, 0, 0);stroke-width:1px;stroke-linecap:butt;stroke-linejoin:miter;opacity:1;font-family:-apple-system, BlinkMacSystemFont, &quot;Helvetica Neue&quot;, sans-serif;font-size:64px;font-weight:700;text-anchor:middle;dominant-baseline:auto">Rent Car</text>
</svg>
